<svg xmlns="http://www.w3.org/2000/svg" viewBox="0 0 96 96" width="96" height="96" shape-rendering="crispEdges">
  <g stroke="#263650" stroke-width="3" stroke-linejoin="round" stroke-linecap="round">
    <path d="M21 45 C11 47 5 54 6 62 C14 66 24 62 31 54 Z" fill="#a9e4f8"/>
    <path d="M70 55 C82 54 91 59 92 68 C84 75 73 72 66 64 Z" fill="#9bdcf5"/>
    <path d="M30 39 C22 50 21 68 34 79 C47 90 69 83 73 65 C78 46 66 31 49 30 C41 29 35 33 30 39 Z" fill="#7fb6e6"/>
    <path d="M37 27 C46 17 62 17 71 28 C78 38 75 50 68 57 C63 44 50 38 35 42 Z" fill="#f4f1e7"/>
    <path d="M43 30 C45 17 55 5 68 7 C64 13 64 19 71 22 C62 23 55 28 52 38 Z" fill="#9dd8f3"/>
    <path d="M48 22 L54 3 L59 24 Z" fill="#c8f2ff"/>
    <path d="M58 21 L75 9 L67 31 Z" fill="#8ecff1"/>
    <path d="M58 65 C72 58 86 60 92 72 C85 84 66 83 55 72 Z" fill="#5d93cd"/>
    <path d="M72 65 L91 63 L84 76 Z" fill="#bcefff"/>
    <path d="M38 64 L32 88 L45 79 Z" fill="#4165a1"/>
    <path d="M63 69 L70 88 L77 77 Z" fill="#385a96"/>
    <path d="M36 58 L30 50 L23 59 L30 64 Z" fill="#3f63a0"/>
  </g>
  <g fill="#e8fbff">
    <rect x="48" y="17" width="5" height="4"/>
    <rect x="60" y="15" width="6" height="4"/>
    <rect x="38" y="73" width="5" height="4"/>
    <rect x="72" y="62" width="5" height="4"/>
    <rect x="83" y="68" width="4" height="4"/>
  </g>
</svg>
