<svg xmlns="http://www.w3.org/2000/svg" viewBox="0 0 96 96" width="96" height="96" shape-rendering="crispEdges">
  <g stroke="#263650" stroke-width="3" stroke-linejoin="round" stroke-linecap="round">
    <path d="M15 61 C8 62 5 57 9 52 C13 47 21 48 26 53 L34 61 C27 59 21 60 15 61 Z" fill="#74a8d9"/>
    <path d="M21 62 C14 70 11 78 14 85 C19 88 25 84 26 77 C28 71 31 67 37 64 Z" fill="#4d78b6"/>
    <path d="M65 60 C77 58 89 63 91 73 C84 79 75 78 69 71 C65 67 62 64 57 64 Z" fill="#6fa9de"/>
    <path d="M79 67 L90 69 L85 76 Z" fill="#bcefff"/>
    <path d="M37 35 C23 42 20 60 30 74 C40 89 66 85 73 68 C80 49 67 31 49 30 C45 29 41 31 37 35 Z" fill="#86b9e8"/>
    <path d="M38 33 C43 18 59 14 72 24 C82 32 83 47 75 57 C72 43 58 36 42 39 Z" fill="#f4f1e7"/>
    <path d="M47 31 C52 18 66 8 79 12 C76 17 75 21 79 25 C70 25 62 29 58 38 Z" fill="#9dd8f3"/>
    <path d="M51 24 L60 4 L62 22 Z" fill="#c8f2ff"/>
    <path d="M60 21 L79 8 L70 29 Z" fill="#8ecff1"/>
    <path d="M37 43 L20 38 L29 53 Z" fill="#bcefff"/>
    <path d="M71 46 L88 39 L82 55 Z" fill="#bcefff"/>
    <path d="M47 69 L40 89 L53 81 Z" fill="#4165a1"/>
    <path d="M67 70 L73 88 L79 77 Z" fill="#385a96"/>
  </g>
  <g fill="#23324e">
    <rect x="44" y="41" width="5" height="7"/>
    <rect x="68" y="39" width="5" height="7"/>
    <rect x="58" y="51" width="6" height="4"/>
  </g>
  <g fill="#6e78bc">
    <rect x="46" y="43" width="2" height="3"/>
    <rect x="70" y="41" width="2" height="3"/>
  </g>
  <path d="M61 59 C65 62 70 61 73 57" fill="none" stroke="#7d4a59" stroke-width="3" stroke-linecap="round"/>
  <g fill="#e8fbff">
    <rect x="54" y="18" width="5" height="4"/>
    <rect x="66" y="17" width="6" height="4"/>
    <rect x="22" y="52" width="5" height="4"/>
    <rect x="35" y="58" width="4" height="3"/>
    <rect x="75" y="44" width="4" height="4"/>
  </g>
</svg>
